<svg width="400" height="113" viewBox="0 0 400 113" fill="none" xmlns="http://www.w3.org/2000/svg">
<path d="M82.013 62.2291C81.915 65.8609 80.4446 69.0018 77.7 71.3575C77.1118 71.8483 76.9158 72.3391 76.9158 73.1243C76.9158 75.7745 76.9158 78.4247 76.9158 81.0749C76.9158 81.8601 77.1118 82.2527 77.798 82.6453C80.5427 84.314 81.817 86.866 81.4249 90.1051C81.0328 93.0498 79.2684 95.0128 76.5237 95.9944C73.0928 97.2704 69.2699 95.6018 67.6035 92.3627C65.9371 89.1236 66.9173 85.0011 70.0541 83.038C70.8383 82.5472 71.0343 82.0564 71.0343 81.173C71.0343 71.2594 71.0343 61.3457 71.0343 51.3339C71.0343 49.7635 71.0343 49.7635 72.6027 50.1561C78.0921 51.3339 82.013 56.438 82.013 62.2291Z" fill="white"/>
<path d="M40.8429 46.0336C36.6279 46.0336 32.4128 46.1317 28.1978 46.0336C18.4934 45.8373 11.2396 41.3221 7.22065 32.4882C3.39772 24.145 4.67203 15.9982 10.3574 8.83287C14.5725 3.53251 20.2578 0.587866 27.0215 0.391556C36.1377 0.195246 45.352 0.195246 54.4682 0.391556C64.4667 0.587866 73.1908 7.75317 75.6414 17.3723C78.1901 27.0897 74.073 37.2978 65.643 42.5982C61.9181 44.8557 57.9971 46.1317 53.586 46.0336C49.469 45.9354 45.156 46.0336 40.8429 46.0336ZM40.7449 34.8439C44.4698 34.6476 48.0967 35.0402 51.8216 34.6476C58.4872 33.9605 63.3884 26.7952 61.526 20.4151C59.9576 14.8203 55.6445 11.5812 49.7631 11.4831C43.8816 11.3849 37.9022 11.4831 32.0207 11.4831C27.0215 11.4831 23.2966 13.7406 20.944 18.2557C17.5132 24.9303 22.4144 33.9605 29.7662 34.6476C33.3931 35.0402 37.118 34.7458 40.7449 34.8439Z" fill="white"/>
<path d="M40.8429 49.7635C49.2729 49.7635 57.605 49.7635 66.035 49.7635C67.0153 49.7635 67.4074 49.9598 67.4074 51.0395C67.3093 57.6159 67.4074 64.2904 67.4074 70.8668C67.4074 71.8483 67.2113 72.1428 66.133 72.1428C49.2729 72.1428 32.4128 72.1428 15.5527 72.1428C14.5724 72.1428 14.3764 71.8483 14.3764 70.9649C14.3764 64.2904 14.3764 57.714 14.3764 51.0395C14.3764 50.0579 14.5724 49.7635 15.6507 49.7635C23.9827 49.7635 32.4128 49.7635 40.8429 49.7635Z" fill="white"/>
<path d="M40.8429 75.5782C49.175 75.5782 57.605 75.5782 65.9371 75.5782C67.1134 75.5782 67.3094 75.8726 67.3094 76.9523C67.4074 80.3878 67.0153 83.725 64.7608 86.4734C62.6043 89.2217 59.7616 90.7922 56.2327 90.8903C52.9979 90.9885 49.6651 90.9885 46.4303 90.9885C45.4501 90.9885 45.156 91.283 45.254 92.1664C45.352 94.1295 45.254 96.0925 45.254 98.0556C45.254 98.7427 45.4501 99.2335 45.9402 99.7243C48.8809 102.473 49.0769 107.184 46.3323 110.031C43.4896 113.073 38.5884 113.073 35.7457 110.227C32.903 107.38 32.903 102.669 35.7457 99.9206C36.3338 99.3317 36.6279 98.7427 36.6279 97.8593C36.5299 95.8962 36.5299 94.0313 36.6279 92.0682C36.6279 91.1848 36.3338 90.9885 35.5496 90.9885C32.3148 90.9885 29.0801 91.0867 25.8453 90.9885C19.6697 90.7922 14.7685 85.7863 14.4745 79.6025C14.4745 78.621 14.5725 77.6394 14.4745 76.6579C14.3764 75.5782 14.8666 75.48 15.7488 75.48C21.9243 75.48 28.0018 75.48 34.1773 75.48C36.3338 75.5782 38.5884 75.5782 40.8429 75.5782Z" fill="white"/>
<path d="M10.9456 66.2534C10.9456 71.2593 10.9456 76.2652 10.9456 81.2711C10.9456 82.0564 11.1417 82.449 11.8278 82.9398C14.9646 85.001 16.0429 88.8291 14.4745 92.1663C13.0041 95.4055 9.27921 97.0741 5.84837 96.1907C2.3195 95.2091 0.0649494 91.8719 0.457045 88.142C0.751118 85.7863 2.02543 83.9213 4.18195 82.7435C4.86812 82.3508 5.06417 81.9582 5.06417 81.2711C5.06417 78.621 4.96615 76.0689 5.06417 73.4188C5.06417 72.5354 4.7701 71.9464 4.18195 71.3575C0.653089 68.1184 -0.719241 64.094 0.359023 59.4808C1.43729 54.6712 4.57405 51.5302 9.37723 50.2542C11.1417 49.7634 11.1417 49.8616 11.1417 51.5302C10.9456 56.3398 10.9456 61.3457 10.9456 66.2534Z" fill="white"/>
<path d="M52.2137 18.3539C54.8603 18.3539 56.9188 20.4151 56.9188 23.0653C56.9188 25.7155 54.7623 27.8749 52.1157 27.8749C49.469 27.8749 47.3125 25.6173 47.4105 22.9672C47.5085 20.4151 49.567 18.3539 52.2137 18.3539Z" fill="white"/>
<path d="M29.4721 18.3539C32.2167 18.3539 34.2752 20.4151 34.3733 23.0653C34.3733 25.7155 32.3148 27.8749 29.5701 27.8749C27.0215 27.8749 24.8649 25.7155 24.8649 23.1635C24.7669 20.5133 26.8254 18.452 29.4721 18.3539Z" fill="white"/>
<path d="M253.125 35.9885C254.889 38.4424 256.556 40.8962 258.32 43.2519C259.987 45.6077 261.751 47.9634 263.417 50.3191C263.81 50.8099 264.006 51.1043 264.496 50.5154C268.123 45.5095 271.749 40.5036 275.278 35.3996C275.376 35.3014 275.474 35.2032 275.572 35.2032C275.67 35.2032 275.67 35.2032 275.768 35.2032C278.023 35.2032 280.18 35.2032 282.434 35.2032C283.218 35.2032 283.414 35.3996 283.414 36.1848C283.414 49.9265 283.414 63.7663 283.414 77.508C283.414 78.3914 283.12 78.5877 282.336 78.5877C280.474 78.5877 278.513 78.4895 276.651 78.5877C275.474 78.6859 275.278 78.1951 275.278 77.1154C275.278 68.5759 275.278 60.0364 275.278 51.497C275.278 51.2025 275.278 50.908 275.278 50.6136C275.278 50.4172 275.376 50.0246 274.984 50.1228C274.886 50.1228 274.69 50.4172 274.592 50.6136C271.455 54.8342 268.221 59.0549 265.28 63.3737C265.084 63.57 264.79 63.7663 264.692 63.9626C264.104 65.1405 263.613 64.7479 263.025 63.9626C259.889 59.5457 256.654 55.2268 253.517 50.8099C253.517 50.6136 253.517 50.5154 253.321 50.5154C253.223 50.2209 253.027 49.8283 252.831 50.3191C252.635 50.6136 252.733 51.1043 252.733 51.3988C252.733 60.0364 252.733 68.5759 252.733 77.2135C252.733 78.0969 252.537 78.5877 251.655 78.5877C249.4 78.3914 247.145 78.4895 244.989 78.5877C244.597 78.2932 244.695 77.9006 244.695 77.6061C244.695 63.57 244.695 49.4357 244.695 35.3996V35.3014C247.243 35.3014 249.694 35.3014 252.243 35.3014V35.3996H252.341C252.439 35.5959 252.635 35.694 252.733 35.8903C253.027 35.7922 253.027 35.8903 253.125 35.9885Z" fill="white"/>
<path d="M104.226 56.4054C104.422 48.2586 107.755 41.7803 114.519 37.4615C124.909 30.6888 138.339 33.4372 145.593 43.5471C145.985 44.0379 145.887 44.3323 145.396 44.6268C143.73 45.8047 142.064 46.9825 140.397 48.2585C139.613 48.8475 139.221 48.6512 138.731 47.9641C136.77 45.2157 134.124 43.3508 130.791 42.3693C122.851 40.1117 114.225 45.4121 112.656 53.5589C110.99 61.8039 116.871 70.0489 125.106 70.9323C130.693 71.5212 135.3 69.5581 138.731 65.043C139.319 64.2578 139.809 64.0615 140.593 64.7486C142.162 66.0246 143.73 67.1043 145.298 68.2821C145.691 68.5766 145.985 68.7729 145.494 69.3618C140.299 76.3308 133.34 79.7663 124.615 78.981C113.245 77.9995 104.716 68.7729 104.226 57.2888C104.324 56.9943 104.324 56.6999 104.226 56.4054Z" fill="white"/>
<path d="M151.082 56.1103C151.082 49.1413 151.082 42.1723 151.082 35.2033C151.082 34.1236 151.278 33.731 152.454 33.731C154.121 33.8291 155.787 33.8291 157.453 33.731C158.434 33.731 158.728 34.0254 158.728 35.007C158.63 40.3073 158.728 45.6077 158.728 50.9081C158.728 51.3007 158.532 51.8896 158.924 52.0859C159.316 52.2822 159.61 51.7915 160.002 51.5951C162.845 49.632 165.883 49.8284 168.922 50.8099C174.314 52.5767 177.842 56.9937 178.136 62.6866C178.333 67.6925 178.235 72.6984 178.235 77.7043C178.235 78.3914 177.94 78.5877 177.352 78.5877C175.49 78.5877 173.529 78.5877 171.667 78.5877C170.785 78.5877 170.491 78.2933 170.491 77.4099C170.491 72.8948 170.491 68.3796 170.491 63.8645C170.491 60.7235 168.824 58.5641 165.883 57.8771C162.159 57.0918 158.728 59.742 158.728 63.57C158.728 68.0852 158.728 72.6003 158.728 77.1154C158.728 78.1951 158.434 78.5877 157.355 78.4896C155.689 78.3914 154.023 78.3914 152.356 78.4896C151.278 78.5877 151.082 78.1951 151.082 77.2136C151.082 70.1464 151.082 63.1774 151.082 56.1103Z" fill="white"/>
<path d="M204.603 76.6246C204.407 76.6246 204.309 76.6246 204.309 76.6246C199.8 80.9434 190.488 78.9803 186.371 73.7781C182.646 69.0667 181.763 63.8645 184.312 58.3678C186.861 52.773 191.468 50.1228 197.545 49.9265C199.702 49.9265 201.662 50.6136 203.427 51.8896C203.721 52.0859 204.015 52.4785 204.505 52.5767C204.603 52.4785 204.701 52.4785 204.701 52.3804C204.897 50.4173 204.897 50.4173 206.858 50.4173C208.328 50.4173 209.7 50.4173 211.171 50.4173C211.857 50.4173 212.151 50.6136 212.151 51.3006C212.151 60.0364 212.151 68.6741 212.151 77.4098C212.151 78.0969 211.857 78.3914 211.171 78.2932C209.7 78.2932 208.132 78.2932 206.662 78.2932C204.799 78.4895 204.799 78.4895 204.603 76.6246ZM197.545 71.815C201.368 71.815 204.799 68.3796 204.701 64.5516C204.701 60.5272 201.368 57.0918 197.545 57.0918C193.722 57.0918 190.39 60.4291 190.39 64.3552C190.39 68.5759 193.526 71.815 197.545 71.815Z" fill="white"/>
<path d="M221.659 39.7184C224.012 39.7184 226.266 39.7184 228.619 39.7184C228.619 40.2092 228.717 40.6018 228.717 41.0926C228.717 43.939 228.717 46.7855 228.717 49.632C228.717 50.5154 228.913 50.8099 229.795 50.8099C231.756 50.7117 233.618 50.8099 235.579 50.8099C236.657 50.8099 236.853 51.1043 236.853 52.0859C236.755 53.3619 236.755 54.6379 236.853 55.8158C236.951 56.6992 236.657 57.0918 235.677 57.0918C233.52 57.0918 231.364 56.8955 229.207 57.1899C228.619 57.2881 228.815 57.7789 228.815 58.0733C228.815 61.5088 228.815 64.846 228.815 68.2815C228.815 70.3427 229.991 71.4224 232.05 71.4224C233.324 71.4224 234.598 71.4224 235.873 71.4224C236.559 71.4224 236.853 71.6187 237.049 72.3058C237.539 74.0726 238.029 75.8394 238.519 77.7043C238.617 78.0969 238.813 78.5877 238.127 78.5877C235.088 78.4896 232.05 78.9803 229.109 78.2932C224.894 77.4099 221.855 73.68 221.659 69.3612C221.561 65.7294 221.561 62.0977 221.659 58.466C221.659 57.3863 221.365 56.9936 220.287 57.0918C217.738 57.19 217.738 57.0918 217.738 54.5398C217.738 53.6564 217.738 52.6748 217.738 51.7914C217.738 51.1043 217.934 50.908 218.62 50.908H218.718C221.659 50.8099 221.561 50.8099 221.659 47.8652C221.561 45.1169 221.365 42.3686 221.659 39.7184Z" fill="white"/>
<path d="M345.954 55.325C348.404 52.5767 351.443 50.7118 355.168 50.221C358.011 49.7302 360.657 50.3191 363.108 51.7914C363.304 51.8896 363.402 51.9878 363.598 52.0859C363.696 52.1841 363.794 52.2822 363.892 52.3804C364.97 53.1656 364.578 52.0859 364.578 51.7914C364.578 46.1966 364.578 40.6018 364.578 35.007C364.578 34.1236 364.774 33.731 365.754 33.731C367.519 33.8291 369.185 33.8291 370.95 33.731C371.734 33.731 372.028 34.0254 372.028 34.8107C371.93 36.8719 372.028 39.0313 372.028 41.0926C372.028 53.0675 372.028 65.0424 372.028 77.0173C372.028 78.1951 371.734 78.4896 370.656 78.3914C369.087 78.2933 367.519 78.2933 365.95 78.3914C365.068 78.3914 364.48 78.2933 364.578 77.2136C364.676 76.1339 364.186 76.6246 363.794 77.0173C357.128 81.6305 347.13 77.8025 343.993 70.4409C342.621 66.711 342.425 62.883 343.797 59.0549C344.189 58.5641 344.385 58.0734 344.483 57.4844C344.679 57.3863 344.777 57.19 344.777 56.9937C344.973 56.8955 345.071 56.6992 345.071 56.5029C345.169 56.4047 345.169 56.3066 345.267 56.2084C345.464 56.1103 345.562 55.914 345.562 55.7176C345.66 55.6195 345.758 55.5213 345.758 55.4232C345.856 55.5213 345.856 55.4232 345.954 55.325ZM350.267 64.4534C350.267 68.5759 353.501 71.9132 357.422 71.9132C361.245 71.9132 364.578 68.5759 364.578 64.6497C364.578 60.5272 361.245 57.0918 357.324 57.19C353.403 57.19 350.169 60.5272 350.267 64.4534Z" fill="white"/>
<path d="M317.821 78.5877C315.566 78.4896 313.312 78.4896 311.057 78.5877C310.959 78.4896 310.763 78.3914 310.665 78.2933C310.665 77.7043 310.665 77.2136 310.665 76.6246C310.665 67.8889 310.665 59.2512 310.665 50.5155C312.821 50.5155 314.978 50.5155 317.233 50.5155C317.821 50.5155 318.409 50.4173 318.311 51.3988C318.213 51.9878 318.801 51.9878 319.095 51.7915C322.036 49.5339 325.173 49.7302 328.407 50.8099C332.034 51.9878 334.681 54.2453 336.347 57.6808C336.445 57.8771 336.543 58.0734 336.641 58.1715C336.641 58.3678 336.641 58.6623 336.837 58.7605C336.837 59.0549 336.935 59.2512 337.131 59.4475C337.131 59.8402 337.131 60.1346 337.426 60.4291C338.014 66.2202 337.622 71.9132 337.72 77.7044C337.72 78.3914 337.426 78.5877 336.837 78.5877C334.975 78.5877 333.112 78.4896 331.25 78.5877C330.27 78.5877 329.976 78.2933 329.976 77.3117C330.074 72.9929 329.976 68.6741 329.976 64.3553C329.976 63.6682 330.074 62.883 329.682 62.294C329.682 61.9996 329.682 61.7051 329.486 61.5088C329.486 61.3125 329.486 61.1162 329.29 60.9199C329.29 60.7236 329.191 60.5272 328.995 60.4291C328.897 60.3309 328.799 60.2328 328.701 60.1346C326.839 57.2881 322.134 56.9937 320.075 59.4475C319.879 59.742 319.585 60.0365 319.291 60.2328C319.193 60.3309 319.193 60.4291 319.095 60.5273C318.801 60.7236 318.801 60.9199 318.801 61.2143C318.605 61.4106 318.507 61.7051 318.507 61.9996C318.213 62.3922 318.213 62.7848 318.213 63.1774C318.213 68.1833 318.213 73.1892 318.213 78.1951C318.311 78.3914 318.017 78.4896 317.821 78.5877Z" fill="white"/>
<path d="M399.279 73.2874C397.416 76.8209 394.377 78.3914 390.457 78.5877C385.849 78.784 381.83 77.3117 378.302 74.3671C377.713 73.8763 377.615 73.5818 378.302 72.9929C379.478 72.0113 380.458 70.8335 381.438 69.6556C382.124 68.8704 382.517 68.6741 383.399 69.4593C385.359 71.2261 387.712 72.3058 390.555 72.0113C391.143 71.9132 391.731 71.7169 392.221 71.5206C392.907 71.1279 393.299 70.6372 393.299 69.8519C393.299 69.0667 392.809 68.6741 392.123 68.3796C390.751 67.7907 389.28 67.5944 387.908 67.2999C386.34 66.9073 384.771 66.5147 383.399 65.8276C378.007 63.1774 377.321 55.8158 382.223 52.3804C386.34 49.5339 390.653 49.7302 395.064 51.6933C396.338 52.2822 397.514 52.9693 398.593 53.8527C399.181 54.2453 399.377 54.6379 398.789 55.2269C397.71 56.3066 396.73 57.4844 395.848 58.6623C395.358 59.3494 394.966 59.4475 394.181 58.8586C392.417 57.4844 390.555 56.601 388.202 56.9936C387.908 56.9936 387.712 57.0918 387.418 57.0918C386.536 57.2881 385.751 57.7789 385.653 58.6623C385.555 59.6438 386.438 60.0364 387.222 60.2328C389.574 60.9198 392.025 61.5088 394.377 62.294C396.828 63.0793 398.789 64.5516 399.671 67.1036C400.161 69.0667 400.161 71.2261 399.279 73.2874Z" fill="white"/>
<path d="M293.805 50.5154C296.353 50.5154 299 50.5154 301.549 50.5154C301.549 59.5457 301.549 68.5759 301.647 77.6062C301.647 78.2933 301.255 78.3914 300.667 78.3914C298.706 78.3914 296.746 78.3914 294.785 78.3914C294.001 78.3914 293.707 78.1951 293.707 77.3117C293.707 72.9929 293.707 68.7722 293.707 64.4534C293.805 59.8402 293.805 55.2269 293.805 50.5154Z" fill="white"/>
<path d="M293.805 39.7184C295.765 37.3627 299.98 36.9701 302.137 40.6999C302.235 40.8963 302.235 40.9944 302.333 41.1907C302.529 42.2704 302.529 43.4483 302.137 44.528C300.47 46.9819 298.51 47.7671 296.157 47.08C294.785 46.6874 294.099 45.7058 293.413 44.528C293.119 43.4483 293.021 42.3686 293.217 41.1907V41.0926C293.413 40.8963 293.511 40.6999 293.511 40.4055C293.707 40.3073 293.805 40.111 293.805 39.9147C293.707 40.0129 293.805 39.8165 293.805 39.7184Z" fill="white"/>
<path d="M274.788 50.5154C274.886 50.3191 274.984 50.0246 275.18 50.0246C275.572 49.9265 275.474 50.3191 275.474 50.5154C275.474 50.8099 275.474 51.1043 275.474 51.3988C275.474 59.9383 275.474 68.4778 275.474 77.0172C275.474 78.0969 275.67 78.4895 276.847 78.4895C278.709 78.3914 280.67 78.3914 282.532 78.4895C283.316 78.4895 283.61 78.2932 283.61 77.4098C283.61 63.6682 283.61 49.8283 283.61 36.0866C283.61 35.3014 283.316 35.1051 282.63 35.1051C280.376 35.1051 278.219 35.1051 275.964 35.1051C277.729 34.6143 279.493 34.9088 281.16 34.9088C284.296 34.9088 284.002 34.6143 284.002 37.7553C284.002 50.7117 284.002 63.7663 284.002 76.7228C284.002 78.5877 284.002 78.5877 282.14 78.5877C280.278 78.5877 278.415 78.4895 276.553 78.5877C275.376 78.6858 275.18 78.1951 275.18 77.1154C275.18 68.7722 275.18 60.429 275.18 52.184C275.082 51.5951 275.278 51.0062 274.788 50.5154Z" fill="white"/>
<path d="M363.696 77.1154C364.088 76.7228 364.578 76.232 364.48 77.3117C364.382 78.3914 364.97 78.4896 365.853 78.4896C367.421 78.4896 368.989 78.3914 370.558 78.4896C371.636 78.5877 371.93 78.1951 371.93 77.1154C371.93 65.1405 371.93 53.1656 371.93 41.1907C371.93 39.1295 371.93 36.9701 371.93 34.9088C371.93 34.1236 371.636 33.8291 370.852 33.8291C369.087 33.8291 367.421 33.9273 365.656 33.8291C364.676 33.8291 364.48 34.2217 364.48 35.1051C364.48 40.7 364.48 46.2948 364.48 51.8896C364.48 52.1841 364.872 53.2638 363.794 52.4785C364.186 51.9878 364.088 51.3988 364.088 50.9081C364.088 45.7059 364.088 40.6018 364.088 35.3996C364.088 33.8291 364.186 33.731 365.754 33.731C367.519 33.731 369.185 33.731 370.95 33.731C371.832 33.731 372.224 34.0254 372.224 34.9088C372.224 49.0431 372.224 63.2756 372.224 77.4099C372.224 78.2933 371.93 78.6859 371.048 78.6859C369.675 78.5877 368.401 78.6859 367.029 78.6859C365.656 78.5877 364.186 78.9804 363.696 77.1154Z" fill="white"/>
<path d="M293.805 50.5154C293.805 55.2269 293.805 59.8401 293.707 64.5516C293.707 68.8704 293.707 73.0911 293.707 77.4099C293.707 78.1951 294.001 78.4896 294.785 78.4896C296.746 78.4896 298.706 78.4896 300.667 78.4896C301.255 78.4896 301.647 78.3914 301.647 77.7043C301.647 68.6741 301.549 59.6438 301.549 50.6136C302.235 50.8099 302.039 51.3007 302.039 51.7914C302.039 60.3309 302.039 68.8704 302.039 77.4099C302.039 78.3914 301.647 78.784 300.667 78.6859C298.608 78.6859 296.648 78.5877 294.589 78.6859C293.609 78.6859 293.413 78.2933 293.413 77.4099C293.413 68.8704 293.413 60.3309 293.413 51.7914C293.511 51.3007 293.413 50.9081 293.805 50.5154Z" fill="white"/>
<path d="M329.878 62.0977C330.27 62.7848 330.172 63.4719 330.172 64.159C330.172 68.4778 330.172 72.7966 330.172 77.1154C330.172 78.0969 330.466 78.3914 331.446 78.3914C333.309 78.2933 335.171 78.3914 337.033 78.3914C337.622 78.3914 338.014 78.2933 337.916 77.508C337.72 71.7169 338.21 66.0239 337.622 60.2328C338.112 61.018 338.21 61.9995 338.21 62.8829C338.21 67.5944 338.21 72.404 338.21 77.1154C338.21 78.0969 337.916 78.4896 336.935 78.4896C334.975 78.3914 333.112 78.4896 331.152 78.4896C330.27 78.4896 329.878 78.2933 329.878 77.3117C329.878 72.3058 329.878 67.2017 329.878 62.0977Z" fill="white"/>
<path d="M251.753 78.5877C252.635 78.5877 252.831 78.097 252.831 77.2136C252.831 68.5759 252.831 60.0365 252.831 51.3988C252.831 51.0062 252.733 50.6136 252.929 50.3191C253.223 49.8284 253.321 50.221 253.419 50.5154C252.929 51.0062 253.125 51.5951 253.125 52.1841C253.125 60.5272 253.125 68.8704 253.125 77.2136C253.223 78.1951 252.929 78.784 251.753 78.5877Z" fill="white"/>
<path d="M310.763 50.6136C310.763 59.3494 310.763 67.987 310.763 76.7228C310.763 77.3117 310.763 77.8025 310.763 78.3914C310.371 78.097 310.469 77.6062 310.469 77.2136C310.469 68.7722 310.469 60.3309 310.469 51.8896C310.371 51.3988 310.273 50.9081 310.763 50.6136Z" fill="white"/>
<path d="M343.699 59.153C342.327 62.9811 342.621 66.711 343.895 70.539C342.523 68.1833 342.229 65.6313 342.523 63.0792C342.719 61.7051 342.719 60.2327 343.699 59.153Z" fill="white"/>
<path d="M318.409 78.2933C318.409 73.2874 318.409 68.2815 318.409 63.2756C318.409 62.883 318.409 62.3922 318.703 62.0977C318.703 67.2018 318.703 72.404 318.801 77.508C318.703 77.8025 318.703 78.0969 318.409 78.2933Z" fill="white"/>
<path d="M252.439 35.1051C249.89 35.1051 247.439 35.1051 244.891 35.1051C245.773 34.6143 246.655 34.9088 247.635 34.9088C249.204 34.9088 250.772 34.6143 252.439 35.1051Z" fill="white"/>
<path d="M302.039 44.4298C302.431 43.3501 302.431 42.2704 302.235 41.0926C302.823 42.2704 302.921 43.4483 302.039 44.4298Z" fill="white"/>
<path d="M293.021 41.1907C292.825 42.2704 292.923 43.4483 293.217 44.528C292.531 43.4483 292.531 42.3686 293.021 41.1907Z" fill="white"/>
<path d="M344.483 57.5826C344.385 58.1715 344.091 58.6623 343.797 59.153C343.699 58.5641 343.895 57.9752 344.483 57.5826Z" fill="white"/>
<path d="M329.682 61.3125C329.878 61.5088 329.976 61.8032 329.878 62.0977C329.584 61.9995 329.584 61.7051 329.682 61.3125Z" fill="white"/>
<path d="M318.605 62.0977C318.605 61.8032 318.605 61.5088 318.899 61.3125C318.997 61.7051 318.997 61.9995 318.605 62.0977Z" fill="white"/>
<path d="M318.899 61.4106C318.899 61.1162 318.997 60.8217 319.193 60.7235C319.193 60.9199 319.193 61.2143 318.899 61.4106Z" fill="white"/>
<path d="M337.622 60.3309C337.327 60.0365 337.327 59.742 337.327 59.3494C337.622 59.6438 337.622 59.9383 337.622 60.3309Z" fill="white"/>
<path d="M252.929 35.694C252.831 35.4977 252.635 35.3996 252.537 35.2032C252.733 35.2032 252.831 35.3996 252.929 35.694Z" fill="white"/>
<path d="M317.821 78.5877C318.017 78.4896 318.213 78.3914 318.409 78.2933C318.311 78.4896 318.115 78.5877 317.821 78.5877Z" fill="white"/>
<path d="M363.598 52.0859C363.402 51.9878 363.304 51.8896 363.108 51.7914C363.304 51.7914 363.5 51.8896 363.598 52.0859Z" fill="white"/>
<path d="M345.562 55.9139C345.562 56.1103 345.463 56.3066 345.267 56.4047C345.267 56.1103 345.365 56.0121 345.562 55.9139Z" fill="white"/>
<path d="M345.071 56.6992C345.071 56.8955 344.973 57.0918 344.777 57.1899C344.777 56.8955 344.777 56.6992 345.071 56.6992Z" fill="white"/>
<path d="M344.777 57.0918C344.777 57.2881 344.679 57.4844 344.483 57.5826C344.483 57.3863 344.581 57.2881 344.777 57.0918Z" fill="white"/>
<path d="M337.033 58.6623C336.837 58.466 336.837 58.2697 336.837 58.0733C337.033 58.2697 337.131 58.466 337.033 58.6623Z" fill="white"/>
<path d="M337.328 59.3494C337.131 59.1531 337.033 58.9567 337.033 58.6623C337.327 58.8586 337.328 59.0549 337.328 59.3494Z" fill="white"/>
<path d="M329.094 60.4291C329.388 60.4291 329.388 60.7235 329.388 60.9199C329.192 60.8217 329.094 60.6254 329.094 60.4291Z" fill="white"/>
<path d="M293.315 40.5036C293.315 40.7981 293.217 40.9944 293.021 41.1907C293.021 40.8962 293.119 40.6018 293.315 40.5036Z" fill="white"/>
<path d="M329.388 60.8217C329.584 60.9199 329.682 61.1162 329.584 61.4106C329.388 61.3125 329.388 61.1162 329.388 60.8217Z" fill="white"/>
<path d="M293.609 40.0129C293.609 40.2092 293.511 40.4055 293.315 40.5037C293.315 40.3073 293.413 40.111 293.609 40.0129Z" fill="white"/>
<path d="M275.672 35.2032C275.573 35.3025 275.475 35.4017 275.376 35.4017C275.475 35.3025 275.573 35.2032 275.672 35.2032Z" fill="white"/>
<path d="M345.268 56.4047C345.17 56.5029 345.17 56.601 345.071 56.6992C345.071 56.601 345.17 56.5029 345.268 56.4047Z" fill="white"/>
<path d="M345.955 55.325C345.856 55.4232 345.758 55.5213 345.758 55.6195C345.856 55.5213 345.856 55.4232 345.955 55.325Z" fill="white"/>
<path d="M253.517 50.5154C253.714 50.6136 253.714 50.7117 253.714 50.8099C253.615 50.7117 253.517 50.6136 253.517 50.5154Z" fill="white"/>
<path d="M319.291 60.6254C319.39 60.5272 319.39 60.4291 319.488 60.3309C319.39 60.4291 319.291 60.5272 319.291 60.6254Z" fill="white"/>
<path d="M253.126 35.9885C253.027 35.8903 252.929 35.7922 252.929 35.694C253.027 35.7922 253.027 35.8903 253.126 35.9885Z" fill="white"/>
<path d="M293.805 39.7184C293.903 39.9147 293.805 40.0129 293.609 40.0129C293.609 39.9147 293.707 39.8165 293.805 39.7184Z" fill="white"/>
<path d="M302.236 41.1907C302.137 40.9944 302.137 40.8963 302.039 40.7C302.137 40.8963 302.236 40.9944 302.236 41.1907Z" fill="white"/>
</svg>
