<svg width="281" height="119" viewBox="0 0 281 119" fill="none" xmlns="http://www.w3.org/2000/svg">
<path d="M59.7856 47.0811C57.6393 47.0811 55.493 47.1308 53.3467 47.0811C48.4053 46.9817 44.7116 44.6948 42.6652 40.2205C40.7185 35.9948 41.3674 31.8685 44.2624 28.2394C46.4087 25.5548 49.3037 24.0634 52.7478 23.964C57.3897 23.8645 62.0816 23.8645 66.7236 23.964C71.8148 24.0634 76.2571 27.6925 77.505 32.5645C78.8027 37.4862 76.7064 42.6565 72.4138 45.3411C70.5171 46.4845 68.5205 47.1308 66.2744 47.0811C64.178 47.0314 61.9818 47.0811 59.7856 47.0811ZM59.7357 41.4137C61.6324 41.3142 63.4792 41.5131 65.3759 41.3142C68.7701 40.9662 71.2658 37.3371 70.3174 34.1057C69.5188 31.272 67.3226 29.6314 64.3277 29.5817C61.3329 29.532 58.2882 29.5817 55.2934 29.5817C52.7478 29.5817 50.851 30.7251 49.6531 33.012C47.9061 36.3925 50.4018 40.9662 54.1453 41.3142C55.9921 41.5131 57.8889 41.364 59.7357 41.4137Z" fill="white"/>
<path d="M59.7856 48.9705C64.0782 48.9705 68.3209 48.9705 72.6135 48.9705C73.1126 48.9705 73.3122 49.0699 73.3122 49.6167C73.2623 52.9476 73.3122 56.3282 73.3122 59.659C73.3122 60.1562 73.2124 60.3053 72.6634 60.3053C64.0782 60.3053 55.493 60.3053 46.9079 60.3053C46.4087 60.3053 46.3089 60.1562 46.3089 59.7087C46.3089 56.3282 46.3089 52.9973 46.3089 49.6167C46.3089 49.1196 46.4087 48.9705 46.9578 48.9705C51.2004 48.9705 55.493 48.9705 59.7856 48.9705Z" fill="white"/>
<path d="M59.7856 62.0451C64.0283 62.0451 68.3209 62.0451 72.5636 62.0451C73.1625 62.0451 73.2624 62.1942 73.2624 62.7411C73.3123 64.4811 73.1126 66.1714 71.9646 67.5634C70.8665 68.9554 69.419 69.7508 67.6221 69.8005C65.975 69.8502 64.2779 69.8502 62.6307 69.8502C62.1316 69.8502 61.9818 69.9994 62.0318 70.4468C62.0817 71.4411 62.0318 72.4354 62.0318 73.4296C62.0318 73.7776 62.1316 74.0262 62.3812 74.2748C63.8786 75.6668 63.9784 78.0531 62.5808 79.4948C61.1333 81.0359 58.6376 81.0359 57.1901 79.5942C55.7426 78.1525 55.7426 75.7662 57.1901 74.3742C57.4896 74.0759 57.6394 73.7776 57.6394 73.3302C57.5894 72.3359 57.5894 71.3913 57.6394 70.3971C57.6394 69.9496 57.4896 69.8502 57.0903 69.8502C55.4431 69.8502 53.796 69.8999 52.1488 69.8502C49.0043 69.7508 46.5086 67.2154 46.3588 64.0834C46.3588 63.5862 46.4088 63.0891 46.3588 62.5919C46.3089 62.0451 46.5585 61.9954 47.0077 61.9954C50.1523 61.9954 53.2469 61.9954 56.3915 61.9954C57.4896 62.0451 58.6376 62.0451 59.7856 62.0451Z" fill="white"/>
<path d="M80.7494 55.2842C80.6995 57.1236 79.9508 58.7144 78.5532 59.9076C78.2537 60.1562 78.1539 60.4047 78.1539 60.8024C78.1539 62.1447 78.1539 63.487 78.1539 64.8293C78.1539 65.227 78.2537 65.4259 78.6031 65.6247C80.0007 66.4699 80.6496 67.7624 80.4499 69.403C80.2503 70.8944 79.3518 71.8887 77.9542 72.3859C76.2073 73.0321 74.2606 72.187 73.4121 70.5464C72.5635 68.9059 73.0627 66.8179 74.6599 65.8236C75.0592 65.575 75.1591 65.3264 75.1591 64.879C75.1591 59.8579 75.1591 54.8367 75.1591 49.7659C75.1591 48.9705 75.1591 48.9705 75.9577 49.1693C78.7529 49.7659 80.7494 52.351 80.7494 55.2842Z" fill="white"/>
<path d="M44.5619 57.3223C44.5619 59.8578 44.5619 62.3932 44.5619 64.9286C44.5619 65.3263 44.6617 65.5252 45.0111 65.7738C46.6084 66.8178 47.1574 68.7566 46.3588 70.4469C45.6101 72.0875 43.7134 72.9326 41.9664 72.4852C40.1695 71.988 39.0215 70.2977 39.2211 68.4086C39.3709 67.2155 40.0197 66.2709 41.1179 65.6743C41.4672 65.4755 41.5671 65.2766 41.5671 64.9286C41.5671 63.5863 41.5172 62.2938 41.5671 60.9515C41.5671 60.504 41.4173 60.2058 41.1179 59.9075C39.321 58.2669 38.6222 56.2286 39.1712 53.8921C39.7203 51.4561 41.3175 49.8652 43.7633 49.2189C44.6617 48.9703 44.6617 49.0201 44.6617 49.8652C44.5619 52.3012 44.5619 54.8366 44.5619 57.3223Z" fill="white"/>
<path d="M164.654 45.8381C165.553 47.081 166.401 48.3239 167.3 49.517C168.148 50.7101 169.047 51.9033 169.895 53.0964C170.095 53.345 170.195 53.4941 170.444 53.1959C172.291 50.6604 174.138 48.125 175.935 45.5399C175.985 45.4901 176.035 45.4404 176.085 45.4404C176.135 45.4404 176.135 45.4404 176.185 45.4404C177.333 45.4404 178.431 45.4404 179.579 45.4404C179.978 45.4404 180.078 45.5399 180.078 45.9376C180.078 52.8976 180.078 59.9073 180.078 66.8673C180.078 67.3147 179.928 67.4141 179.529 67.4141C178.58 67.4141 177.582 67.3644 176.634 67.4141C176.035 67.4638 175.935 67.2153 175.935 66.6684C175.935 62.3433 175.935 58.0181 175.935 53.693C175.935 53.5439 175.935 53.3947 175.935 53.2456C175.935 53.1461 175.985 52.9473 175.785 52.997C175.735 52.997 175.635 53.1461 175.586 53.2456C173.988 55.3833 172.341 57.521 170.844 59.7084C170.744 59.8078 170.594 59.9073 170.544 60.0067C170.245 60.6033 169.995 60.4044 169.696 60.0067C168.098 57.7696 166.451 55.5821 164.854 53.345C164.854 53.2456 164.854 53.1959 164.754 53.1959C164.704 53.0467 164.605 52.8478 164.505 53.0964C164.405 53.2456 164.455 53.4941 164.455 53.6433C164.455 58.0181 164.455 62.3433 164.455 66.7181C164.455 67.1656 164.355 67.4141 163.906 67.4141C162.758 67.3147 161.61 67.3644 160.512 67.4141C160.312 67.265 160.362 67.0661 160.362 66.917C160.362 59.8078 160.362 52.649 160.362 45.5399V45.4901C161.66 45.4901 162.907 45.4901 164.205 45.4901V45.5399H164.255C164.305 45.6393 164.405 45.689 164.455 45.7884C164.605 45.7387 164.605 45.7884 164.654 45.8381Z" fill="white"/>
<path d="M88.8354 56.1793C88.9353 52.053 90.6323 48.7719 94.0764 46.5844C99.3673 43.1541 106.205 44.5461 109.899 49.6667C110.099 49.9153 110.049 50.0644 109.799 50.2136C108.951 50.8101 108.102 51.4067 107.254 52.053C106.854 52.3513 106.655 52.2519 106.405 51.9039C105.407 50.5119 104.059 49.5673 102.362 49.0701C98.3191 47.9267 93.9266 50.6113 93.128 54.7376C92.2795 58.9136 95.2743 63.0896 99.4671 63.537C102.312 63.8353 104.658 62.841 106.405 60.5541C106.705 60.1564 106.954 60.057 107.353 60.405C108.152 61.0513 108.951 61.5981 109.749 62.1947C109.949 62.3438 110.099 62.4433 109.849 62.7416C107.204 66.2713 103.66 68.0113 99.2175 67.6136C93.4275 67.1164 89.085 62.4433 88.8354 56.6267C88.8854 56.4776 88.8854 56.3284 88.8354 56.1793Z" fill="white"/>
<path d="M112.694 56.0297C112.694 52.5 112.694 48.9702 112.694 45.4405C112.694 44.8937 112.794 44.6948 113.393 44.6948C114.242 44.7445 115.09 44.7445 115.939 44.6948C116.438 44.6948 116.587 44.844 116.587 45.3411C116.538 48.0257 116.587 50.7102 116.587 53.3948C116.587 53.5937 116.488 53.892 116.687 53.9914C116.887 54.0908 117.037 53.8422 117.236 53.7428C118.684 52.7485 120.231 52.848 121.779 53.3451C124.524 54.24 126.321 56.4771 126.47 59.3605C126.57 61.8959 126.52 64.4314 126.52 66.9668C126.52 67.3148 126.371 67.4142 126.071 67.4142C125.123 67.4142 124.124 67.4142 123.176 67.4142C122.727 67.4142 122.577 67.2651 122.577 66.8177C122.577 64.5308 122.577 62.2439 122.577 59.9571C122.577 58.3662 121.729 57.2725 120.231 56.9245C118.334 56.5268 116.587 57.8691 116.587 59.8079C116.587 62.0948 116.587 64.3817 116.587 66.6685C116.587 67.2154 116.438 67.4142 115.889 67.3645C115.04 67.3148 114.192 67.3148 113.343 67.3645C112.794 67.4142 112.694 67.2154 112.694 66.7182C112.694 63.1388 112.694 59.6091 112.694 56.0297Z" fill="white"/>
<path d="M139.947 66.42C139.847 66.42 139.797 66.42 139.797 66.42C137.501 68.6074 132.76 67.6131 130.663 64.9783C128.766 62.592 128.317 59.9571 129.615 57.1731C130.913 54.3394 133.259 52.9971 136.353 52.8977C137.451 52.8977 138.45 53.2457 139.348 53.892C139.498 53.9914 139.648 54.1903 139.897 54.24C139.947 54.1903 139.997 54.1903 139.997 54.1406C140.097 53.1463 140.097 53.1463 141.095 53.1463C141.844 53.1463 142.543 53.1463 143.291 53.1463C143.641 53.1463 143.791 53.2457 143.791 53.5937C143.791 58.0183 143.791 62.3931 143.791 66.8177C143.791 67.1657 143.641 67.3148 143.291 67.2651C142.543 67.2651 141.744 67.2651 140.995 67.2651C140.047 67.3645 140.047 67.3645 139.947 66.42ZM136.353 63.984C138.3 63.984 140.047 62.244 139.997 60.3051C139.997 58.2668 138.3 56.5268 136.353 56.5268C134.407 56.5268 132.71 58.2171 132.71 60.2057C132.71 62.3434 134.307 63.984 136.353 63.984Z" fill="white"/>
<path d="M148.632 47.7273C149.83 47.7273 150.978 47.7273 152.176 47.7273C152.176 47.9759 152.226 48.1747 152.226 48.4233C152.226 49.865 152.226 51.3067 152.226 52.7484C152.226 53.1959 152.326 53.345 152.775 53.345C153.773 53.2953 154.722 53.345 155.72 53.345C156.269 53.345 156.369 53.4941 156.369 53.9913C156.319 54.6376 156.319 55.2839 156.369 55.8804C156.419 56.3279 156.269 56.5267 155.77 56.5267C154.672 56.5267 153.574 56.4273 152.476 56.5764C152.176 56.6261 152.276 56.8747 152.276 57.0239C152.276 58.7639 152.276 60.4541 152.276 62.1941C152.276 63.2381 152.875 63.785 153.923 63.785C154.572 63.785 155.221 63.785 155.87 63.785C156.219 63.785 156.369 63.8844 156.469 64.2324C156.718 65.1273 156.968 66.0221 157.217 66.9667C157.267 67.1656 157.367 67.4141 157.018 67.4141C155.47 67.3644 153.923 67.613 152.426 67.265C150.279 66.8176 148.732 64.9284 148.632 62.741C148.582 60.9016 148.582 59.0621 148.632 57.2227C148.632 56.6759 148.482 56.477 147.933 56.5267C146.636 56.5764 146.636 56.5267 146.636 55.2341C146.636 54.7867 146.636 54.2896 146.636 53.8421C146.636 53.4941 146.735 53.3947 147.085 53.3947H147.135C148.632 53.345 148.582 53.345 148.632 51.8536C148.582 50.4616 148.482 49.0696 148.632 47.7273Z" fill="white"/>
<path d="M211.923 55.632C213.171 54.24 214.718 53.2954 216.615 53.0468C218.062 52.7982 219.41 53.0965 220.658 53.8422C220.758 53.892 220.807 53.9417 220.907 53.9914C220.957 54.0411 221.007 54.0908 221.057 54.1405C221.606 54.5382 221.406 53.9914 221.406 53.8422C221.406 51.0085 221.406 48.1748 221.406 45.3411C221.406 44.8937 221.506 44.6948 222.005 44.6948C222.904 44.7445 223.752 44.7445 224.651 44.6948C225.05 44.6948 225.2 44.844 225.2 45.2417C225.15 46.2857 225.2 47.3794 225.2 48.4234C225.2 54.4885 225.2 60.5537 225.2 66.6188C225.2 67.2154 225.05 67.3645 224.501 67.3148C223.702 67.2651 222.904 67.2651 222.105 67.3148C221.656 67.3148 221.356 67.2651 221.406 66.7182C221.456 66.1714 221.207 66.4199 221.007 66.6188C217.613 68.9554 212.522 67.0165 210.925 63.2879C210.226 61.3988 210.126 59.46 210.825 57.5211C211.024 57.2725 211.124 57.024 211.174 56.7257C211.274 56.676 211.324 56.5765 211.324 56.4771C211.424 56.4274 211.474 56.328 211.474 56.2285C211.523 56.1788 211.523 56.1291 211.573 56.0794C211.673 56.0297 211.723 55.9302 211.723 55.8308C211.773 55.7811 211.823 55.7314 211.823 55.6817C211.873 55.7314 211.873 55.6817 211.923 55.632ZM214.119 60.2554C214.119 62.3434 215.766 64.0337 217.763 64.0337C219.709 64.0337 221.406 62.3434 221.406 60.3548C221.406 58.2668 219.709 56.5268 217.713 56.5765C215.716 56.5765 214.069 58.2668 214.119 60.2554Z" fill="white"/>
<path d="M197.598 67.4143C196.45 67.3646 195.302 67.3646 194.154 67.4143C194.104 67.3646 194.004 67.3149 193.954 67.2651C193.954 66.9669 193.954 66.7183 193.954 66.42C193.954 61.9954 193.954 57.6206 193.954 53.196C195.052 53.196 196.15 53.196 197.298 53.196C197.598 53.196 197.897 53.1463 197.847 53.6434C197.797 53.9417 198.097 53.9417 198.246 53.8423C199.744 52.6989 201.341 52.7983 202.988 53.3452C204.835 53.9417 206.183 55.0852 207.031 56.8252C207.081 56.9246 207.131 57.024 207.181 57.0737C207.181 57.1732 207.181 57.3223 207.281 57.372C207.281 57.5212 207.331 57.6206 207.431 57.72C207.431 57.9189 207.431 58.068 207.58 58.2172C207.88 61.1503 207.68 64.0337 207.73 66.9669C207.73 67.3149 207.58 67.4143 207.281 67.4143C206.332 67.4143 205.384 67.3646 204.436 67.4143C203.937 67.4143 203.787 67.2651 203.787 66.768C203.837 64.5806 203.787 62.3931 203.787 60.2057C203.787 59.8577 203.837 59.46 203.637 59.1617C203.637 59.0126 203.637 58.8634 203.537 58.764C203.537 58.6646 203.537 58.5652 203.437 58.4657C203.437 58.3663 203.388 58.2669 203.288 58.2172C203.238 58.1674 203.188 58.1177 203.138 58.068C202.19 56.6263 199.794 56.4772 198.746 57.72C198.646 57.8692 198.496 58.0183 198.346 58.1177C198.296 58.1674 198.296 58.2172 198.246 58.2669C198.097 58.3663 198.097 58.4657 198.097 58.6149C197.997 58.7143 197.947 58.8634 197.947 59.0126C197.797 59.2114 197.797 59.4103 197.797 59.6092C197.797 62.1446 197.797 64.68 197.797 67.2154C197.847 67.3149 197.697 67.3646 197.598 67.4143Z" fill="white"/>
<path d="M239.076 64.7296C238.128 66.5193 236.58 67.3147 234.584 67.4141C232.238 67.5136 230.191 66.7678 228.394 65.2764C228.095 65.0278 228.045 64.8787 228.394 64.5804C228.993 64.0833 229.492 63.4867 229.992 62.8901C230.341 62.4924 230.541 62.393 230.99 62.7907C231.988 63.6856 233.186 64.2324 234.634 64.0833C234.933 64.0336 235.233 63.9341 235.482 63.8347C235.831 63.6358 236.031 63.3873 236.031 62.9896C236.031 62.5918 235.782 62.393 235.432 62.2438C234.733 61.9456 233.985 61.8461 233.286 61.697C232.487 61.4981 231.689 61.2993 230.99 60.9513C228.245 59.609 227.895 55.8804 230.391 54.1404C232.487 52.6987 234.683 52.7981 236.93 53.7924C237.578 54.0907 238.177 54.4387 238.726 54.8861C239.026 55.085 239.126 55.2838 238.826 55.5821C238.277 56.129 237.778 56.7256 237.329 57.3221C237.079 57.6701 236.88 57.7199 236.48 57.4216C235.582 56.7256 234.634 56.2781 233.436 56.477C233.286 56.477 233.186 56.5267 233.036 56.5267C232.587 56.6261 232.188 56.8747 232.138 57.3221C232.088 57.8193 232.537 58.0181 232.936 58.1176C234.134 58.4656 235.382 58.7639 236.58 59.1616C237.828 59.5593 238.826 60.305 239.276 61.5976C239.525 62.5918 239.525 63.6856 239.076 64.7296Z" fill="white"/>
<path d="M185.369 53.196C186.666 53.196 188.014 53.196 189.312 53.196C189.312 57.7698 189.312 62.3435 189.362 66.9172C189.362 67.2652 189.162 67.3149 188.863 67.3149C187.864 67.3149 186.866 67.3149 185.868 67.3149C185.469 67.3149 185.319 67.2155 185.319 66.768C185.319 64.5806 185.319 62.4429 185.319 60.2555C185.369 57.9189 185.369 55.5823 185.369 53.196Z" fill="white"/>
<path d="M185.369 47.7274C186.367 46.5342 188.513 46.3354 189.611 48.2245C189.661 48.324 189.661 48.3737 189.711 48.4731C189.811 49.02 189.811 49.6165 189.611 50.1634C188.763 51.4062 187.765 51.804 186.567 51.456C185.868 51.2571 185.518 50.76 185.169 50.1634C185.019 49.6165 184.969 49.0697 185.069 48.4731V48.4234C185.169 48.324 185.219 48.2245 185.219 48.0754C185.319 48.0257 185.369 47.9262 185.369 47.8268C185.319 47.8765 185.369 47.7771 185.369 47.7274Z" fill="white"/>
<path d="M175.685 53.196C175.735 53.0966 175.785 52.9474 175.885 52.9474C176.085 52.8977 176.035 53.0966 176.035 53.196C176.035 53.3452 176.035 53.4943 176.035 53.6434C176.035 57.9686 176.035 62.2937 176.035 66.6189C176.035 67.1657 176.135 67.3646 176.734 67.3646C177.682 67.3149 178.68 67.3149 179.629 67.3646C180.028 67.3646 180.178 67.2651 180.178 66.8177C180.178 59.8577 180.178 52.848 180.178 45.888C180.178 45.4903 180.028 45.3909 179.679 45.3909C178.531 45.3909 177.432 45.3909 176.284 45.3909C177.183 45.1423 178.081 45.2914 178.93 45.2914C180.527 45.2914 180.377 45.1423 180.377 46.7332C180.377 53.2954 180.377 59.9074 180.377 66.4697C180.377 67.4143 180.377 67.4143 179.429 67.4143C178.481 67.4143 177.532 67.3646 176.584 67.4143C175.985 67.464 175.885 67.2154 175.885 66.6686C175.885 62.4429 175.885 58.2171 175.885 54.0412C175.835 53.7429 175.935 53.4446 175.685 53.196Z" fill="white"/>
<path d="M220.957 66.6685C221.157 66.4697 221.406 66.2211 221.357 66.7679C221.307 67.3148 221.606 67.3645 222.055 67.3645C222.854 67.3645 223.653 67.3148 224.451 67.3645C225 67.4142 225.15 67.2154 225.15 66.6685C225.15 60.6034 225.15 54.5382 225.15 48.4731C225.15 47.4291 225.15 46.3354 225.15 45.2914C225.15 44.8937 225 44.7445 224.601 44.7445C223.702 44.7445 222.854 44.7943 221.955 44.7445C221.456 44.7445 221.357 44.9434 221.357 45.3908C221.357 48.2245 221.357 51.0582 221.357 53.892C221.357 54.0411 221.556 54.588 221.007 54.1902C221.207 53.9417 221.157 53.6434 221.157 53.3948C221.157 50.76 221.157 48.1748 221.157 45.54C221.157 44.7445 221.207 44.6948 222.005 44.6948C222.904 44.6948 223.752 44.6948 224.651 44.6948C225.1 44.6948 225.3 44.844 225.3 45.2914C225.3 52.4502 225.3 59.6588 225.3 66.8177C225.3 67.2651 225.15 67.4639 224.701 67.4639C224.002 67.4142 223.353 67.4639 222.654 67.4639C221.955 67.4142 221.207 67.6131 220.957 66.6685Z" fill="white"/>
<path d="M185.369 53.196C185.369 55.5823 185.369 57.9189 185.319 60.3052C185.319 62.4926 185.319 64.6303 185.319 66.8177C185.319 67.2155 185.469 67.3646 185.868 67.3646C186.866 67.3646 187.864 67.3646 188.863 67.3646C189.162 67.3646 189.362 67.3149 189.362 66.9669C189.362 62.3932 189.312 57.8195 189.312 53.2458C189.661 53.3452 189.561 53.5938 189.561 53.8423C189.561 58.1675 189.561 62.4926 189.561 66.8177C189.561 67.3149 189.362 67.5137 188.863 67.464C187.814 67.464 186.816 67.4143 185.768 67.464C185.269 67.464 185.169 67.2652 185.169 66.8177C185.169 62.4926 185.169 58.1675 185.169 53.8423C185.219 53.5938 185.169 53.3949 185.369 53.196Z" fill="white"/>
<path d="M203.737 59.0622C203.937 59.4102 203.887 59.7582 203.887 60.1062C203.887 62.2937 203.887 64.4811 203.887 66.6685C203.887 67.1657 204.036 67.3148 204.536 67.3148C205.484 67.2651 206.432 67.3148 207.381 67.3148C207.68 67.3148 207.88 67.2651 207.83 66.8674C207.73 63.9342 207.98 61.0508 207.68 58.1177C207.93 58.5154 207.98 59.0125 207.98 59.46C207.98 61.8462 207.98 64.2822 207.98 66.6685C207.98 67.1657 207.83 67.3645 207.331 67.3645C206.332 67.3148 205.384 67.3645 204.386 67.3645C203.937 67.3645 203.737 67.2651 203.737 66.768C203.737 64.2325 203.737 61.6474 203.737 59.0622Z" fill="white"/>
<path d="M163.956 67.4141C164.405 67.4141 164.505 67.1656 164.505 66.7181C164.505 62.3433 164.505 58.0181 164.505 53.6433C164.505 53.4444 164.455 53.2456 164.555 53.0964C164.704 52.8479 164.754 53.0467 164.804 53.1959C164.555 53.4444 164.654 53.7427 164.654 54.041C164.654 58.2667 164.654 62.4924 164.654 66.7181C164.704 67.2153 164.555 67.5136 163.956 67.4141Z" fill="white"/>
<path d="M194.004 53.2456C194.004 57.6702 194.004 62.045 194.004 66.4696C194.004 66.7679 194.004 67.0165 194.004 67.3147C193.804 67.1656 193.854 66.917 193.854 66.7182C193.854 62.4427 193.854 58.1673 193.854 53.8919C193.804 53.6433 193.754 53.3947 194.004 53.2456Z" fill="white"/>
<path d="M210.775 57.5708C210.076 59.5097 210.226 61.3988 210.875 63.3377C210.176 62.1445 210.026 60.8519 210.176 59.5594C210.276 58.8634 210.276 58.1177 210.775 57.5708Z" fill="white"/>
<path d="M197.897 67.2651C197.897 64.7297 197.897 62.1943 197.897 59.6588C197.897 59.46 197.897 59.2114 198.047 59.0623C198.047 61.6474 198.047 64.2823 198.097 66.8674C198.047 67.0165 198.047 67.1657 197.897 67.2651Z" fill="white"/>
<path d="M164.305 45.3909C163.007 45.3909 161.759 45.3909 160.462 45.3909C160.911 45.1423 161.36 45.2914 161.859 45.2914C162.658 45.2914 163.457 45.1423 164.305 45.3909Z" fill="white"/>
<path d="M189.561 50.1136C189.761 49.5668 189.761 49.0199 189.661 48.4233C189.961 49.0199 190.011 49.6165 189.561 50.1136Z" fill="white"/>
<path d="M184.969 48.4731C184.87 49.02 184.919 49.6166 185.069 50.1634C184.72 49.6166 184.72 49.0697 184.969 48.4731Z" fill="white"/>
<path d="M211.174 56.7754C211.124 57.0737 210.974 57.3222 210.825 57.5708C210.775 57.2725 210.875 56.9742 211.174 56.7754Z" fill="white"/>
<path d="M203.637 58.6646C203.737 58.764 203.787 58.9131 203.737 59.0623C203.587 59.0125 203.587 58.8634 203.637 58.6646Z" fill="white"/>
<path d="M197.997 59.0623C197.997 58.9131 197.997 58.764 198.147 58.6646C198.197 58.8634 198.197 59.0125 197.997 59.0623Z" fill="white"/>
<path d="M198.147 58.7142C198.147 58.5651 198.197 58.4159 198.296 58.3662C198.296 58.4656 198.296 58.6148 198.147 58.7142Z" fill="white"/>
<path d="M207.68 58.1673C207.53 58.0182 207.53 57.869 207.53 57.6702C207.68 57.8193 207.68 57.9685 207.68 58.1673Z" fill="white"/>
<path d="M164.555 45.689C164.505 45.5896 164.405 45.5399 164.355 45.4404C164.455 45.4404 164.505 45.5399 164.555 45.689Z" fill="white"/>
<path d="M197.598 67.4143C197.697 67.3646 197.797 67.3149 197.897 67.2651C197.847 67.3646 197.747 67.4143 197.598 67.4143Z" fill="white"/>
<path d="M220.907 53.9914C220.807 53.9417 220.758 53.892 220.658 53.8423C220.758 53.8423 220.857 53.892 220.907 53.9914Z" fill="white"/>
<path d="M211.723 55.9302C211.723 56.0296 211.673 56.129 211.573 56.1787C211.573 56.0296 211.623 55.9799 211.723 55.9302Z" fill="white"/>
<path d="M211.474 56.3279C211.474 56.4273 211.424 56.5267 211.324 56.5765C211.324 56.4273 211.324 56.3279 211.474 56.3279Z" fill="white"/>
<path d="M211.324 56.5269C211.324 56.6263 211.274 56.7257 211.174 56.7754C211.174 56.676 211.224 56.6263 211.324 56.5269Z" fill="white"/>
<path d="M207.381 57.3222C207.281 57.2228 207.281 57.1234 207.281 57.0239C207.381 57.1234 207.431 57.2228 207.381 57.3222Z" fill="white"/>
<path d="M207.53 57.6703C207.431 57.5708 207.381 57.4714 207.381 57.3223C207.53 57.4217 207.53 57.5211 207.53 57.6703Z" fill="white"/>
<path d="M203.338 58.217C203.487 58.217 203.487 58.3662 203.487 58.4656C203.388 58.4159 203.338 58.3165 203.338 58.217Z" fill="white"/>
<path d="M185.119 48.125C185.119 48.2741 185.069 48.3736 184.969 48.473C184.969 48.3239 185.019 48.1747 185.119 48.125Z" fill="white"/>
<path d="M203.487 58.416C203.587 58.4657 203.637 58.5652 203.587 58.7143C203.487 58.6646 203.487 58.5652 203.487 58.416Z" fill="white"/>
<path d="M185.269 47.8765C185.269 47.9759 185.219 48.0753 185.119 48.125C185.119 48.0256 185.169 47.9262 185.269 47.8765Z" fill="white"/>
<path d="M176.135 45.4404C176.085 45.4907 176.035 45.5409 175.985 45.5409C176.035 45.4907 176.085 45.4404 176.135 45.4404Z" fill="white"/>
<path d="M211.573 56.1787C211.523 56.2284 211.523 56.2781 211.474 56.3278C211.474 56.2781 211.523 56.2284 211.573 56.1787Z" fill="white"/>
<path d="M211.923 55.6318C211.873 55.6816 211.823 55.7313 211.823 55.781C211.873 55.7313 211.873 55.6816 211.923 55.6318Z" fill="white"/>
<path d="M164.854 53.196C164.954 53.2458 164.954 53.2955 164.954 53.3452C164.904 53.2955 164.854 53.2458 164.854 53.196Z" fill="white"/>
<path d="M198.346 58.3166C198.396 58.2669 198.396 58.2172 198.446 58.1675C198.396 58.2172 198.346 58.2669 198.346 58.3166Z" fill="white"/>
<path d="M164.654 45.8384C164.605 45.7886 164.555 45.7389 164.555 45.6892C164.605 45.7389 164.605 45.7886 164.654 45.8384Z" fill="white"/>
<path d="M185.369 47.7273C185.419 47.8267 185.369 47.8764 185.269 47.8764C185.269 47.8267 185.319 47.777 185.369 47.7273Z" fill="white"/>
<path d="M189.661 48.4732C189.611 48.3738 189.611 48.324 189.561 48.2246C189.611 48.324 189.661 48.3738 189.661 48.4732Z" fill="white"/>
<path d="M65.5756 33.0618C66.9233 33.0618 67.9715 34.1058 67.9715 35.4481C67.9715 36.7903 66.8734 37.8841 65.5257 37.8841C64.1781 37.8841 63.08 36.7406 63.1299 35.3983C63.1798 34.1058 64.228 33.0618 65.5756 33.0618Z" fill="white"/>
<path d="M53.9956 33.0618C55.3932 33.0618 56.4414 34.1058 56.4913 35.4481C56.4913 36.7903 55.4431 37.8841 54.0455 37.8841C52.7478 37.8841 51.6497 36.7903 51.6497 35.4978C51.5997 34.1555 52.6479 33.1115 53.9956 33.0618Z" fill="white"/>
</svg>
